<svg fill="none" stroke="#3e8fb0" stroke-width="3.2" viewBox="-4 -6.4 72 76.8" xmlns="http://www.w3.org/2000/svg">
  <g id="SVGRepo_bgCarrier" stroke-width="0">
    <path d="M9.166.33a2.25 2.25 0 00-2.332 0l-5.25 3.182A2.25 2.25 0 00.5 5.436v5.128a2.25 2.25 0 001.084 1.924l5.25 3.182a2.25 2.25 0 002.332 0l5.25-3.182a2.25 2.25 0 001.084-1.924V5.436a2.25 2.25 0 00-1.084-1.924L9.166.33z" fill="#191724" strokewidth="0" transform="translate(-6.4, -6.4), scale(4.8)"></path>
  </g>
  <g id="SVGRepo_tracerCarrier" stroke-linecap="round" stroke-linejoin="round"></g>
  <g id="SVGRepo_iconCarrier">
    <path d="M13.4,51V46.21s4.83-.24,4.83-4.83V26.1s-.05-12.67,13.63-12.67c12.06,0,15,7,15,12.21V42.23s-.36,4,4.8,4V51Z"></path>
    <path d="M36.24,13.79V12.47a3.74,3.74,0,0,0-7.48,0v1.2"></path>
    <path d="M36.33,51a4.57,4.57,0,0,1-9.13,0"></path>
    <path d="M50.5,33.49A4.67,4.67,0,0,1,52,41.08"></path>
    <path d="M53.3,30a8,8,0,0,1,2.59,13"></path>
    <path d="M14,33.74a4.66,4.66,0,0,0-1.51,7.59"></path>
    <path d="M11.17,30.26a8,8,0,0,0-2.59,13"></path>
  </g>
</svg>
