<?xml version="1.0" encoding="UTF-8" standalone="no"?>
<svg
   style="color:#3B789A;"
   fill="currentColor"
   stroke="currentColor"
   stroke-width="0.00024000000000000003"
   viewBox="-4.8 -4.8 33.60 33.60"
   version="1.1"
   id="svg3"
   xml:space="preserve"
   xmlns="http://www.w3.org/2000/svg"
   xmlns:svg="http://www.w3.org/2000/svg"><defs
     id="defs3" /><g
     id="SVGRepo_tracerCarrier"
     stroke-linecap="round"
     stroke-linejoin="round"
     stroke-width="0.624" /><path
     id="path1" /><g
     style="fill:none;stroke-width:3"
     id="g35"
     transform="translate(-21.641894,-20.218735)"><g
       id="SVGRepo_tracerCarrier-6"
       stroke-linecap="round"
       stroke-linejoin="round" /><g
       id="SVGRepo_iconCarrier"
       transform="matrix(0.38502938,0,0,0.38502938,21.230472,19.881184)"><path
         d="m 13.4,51 v -4.79 c 0,0 4.83,-0.24 4.83,-4.83 V 26.1 c 0,0 -0.05,-12.67 13.63,-12.67 12.06,0 15,7 15,12.21 v 16.59 c 0,0 -0.36,4 4.8,4 V 51 Z"
         id="path2" /><path
         d="m 36.24,13.79 v -1.32 a 3.74,3.74 0 0 0 -7.48,0 v 1.2"
         id="path3" /><path
         d="M 36.33,51 A 4.57,4.57 0 0 1 27.2,51"
         id="path4" /><path
         d="M 50.5,33.49 A 4.67,4.67 0 0 1 52,41.08"
         id="path5" /><path
         d="m 53.3,30 a 8,8 0 0 1 2.59,13"
         id="path6" /><path
         d="m 14,33.74 a 4.66,4.66 0 0 0 -1.51,7.59"
         id="path7" /><path
         d="m 11.17,30.26 a 8,8 0 0 0 -2.59,13"
         id="path8" /></g></g></svg>
