<?xml version="1.0" encoding="UTF-8" standalone="no"?>
<svg
   style="color:#374570;"
   fill="currentColor"
   stroke="currentColor"
   stroke-width="0.00024000000000000003"
   viewBox="-4.8 -4.8 33.60 33.60"
   version="1.1"
   id="svg3"
   xml:space="preserve"
   xmlns="http://www.w3.org/2000/svg"
   xmlns:svg="http://www.w3.org/2000/svg"><defs
     id="defs3" /><g
     id="SVGRepo_tracerCarrier"
     stroke="#CCCCCC"
     stroke-linecap="round"
     stroke-linejoin="round"
     stroke-width="0.624" /><path
     style="fill:#000000"
     id="path1" /><path
     d="m 18.055586,2.4573032 c -0.1519,0.037327 -0.439177,0.1485579 -0.638393,0.2472084 -0.31807,0.1575329 -0.410262,0.2278688 -0.756496,0.5772201 -0.461295,0.4653886 -0.573239,0.6430497 -0.863596,1.3707808 -0.211346,0.5296031 -0.400798,0.9056543 -0.512592,1.0174858 -0.100754,0.1007159 -0.291408,0.068835 -0.467454,-0.078261 -0.591378,-0.4940786 -1.37416,-0.5699723 -2.101178,-0.203722 -0.235641,0.1187406 -1.164804,1.0555264 -1.285198,1.2957129 -0.362681,0.7237876 -0.266134,1.534922 0.251114,2.1102647 L 11.85416,8.9856616 7.5205592,13.298571 c -4.061157,4.041854 -4.3406981,4.328305 -4.4468967,4.557038 -0.1499472,0.322877 -0.1929074,0.568696 -0.233051,1.333115 -0.035637,0.678687 -0.08731,0.925107 -0.2345908,1.118878 -0.230197,0.302824 -0.2810431,0.614773 -0.1438261,0.882297 0.2420636,0.472073 0.766222,0.55957 1.2317983,0.205675 0.1964374,-0.149309 0.4394399,-0.199066 1.1564305,-0.236881 0.7706908,-0.04063 0.9478636,-0.07003 1.2711159,-0.210896 0.2144626,-0.09347 0.4642246,-0.33339 3.4896824,-3.352014 2.3213103,-2.316053 3.2813033,-3.297902 3.3372563,-3.413226 0.159787,-0.329298 0.01896,-0.771741 -0.306429,-0.962884 -0.123397,-0.07251 -0.206801,-0.078 -1.456813,-0.09568 l -1.3259046,-0.01878 1.5443486,-1.517161 1.544348,-1.517122 1.283658,1.278138 c 0.85725,0.85357 1.339199,1.306078 1.450843,1.362181 0.332528,0.167147 0.564301,0.224978 0.899571,0.224564 0.631596,-7.89e-4 0.94193,-0.162377 1.608638,-0.837647 0.649772,-0.658108 0.79739,-0.947864 0.79739,-1.565302 0,-0.486343 -0.148333,-0.8786541 -0.46858,-1.2392342 -0.346009,-0.3895676 -0.23921,-0.519762 0.855973,-1.0434701 0.596859,-0.2853985 0.917596,-0.496932 1.302359,-0.8588633 0.470158,-0.4423315 0.73832,-0.9076456 0.886953,-1.5392419 0.0845,-0.3590395 0.05486,-1.0589814 -0.06016,-1.421476 C 21.250518,3.629656 20.753097,3.0444748 20.021649,2.6859983 19.81511,2.5847565 19.524491,2.475366 19.375858,2.4429582 19.014377,2.3640602 18.408467,2.3706694 18.055586,2.4573029 m 0.499449,1.4684546 c -0.58736,0.078672 -1.023982,0.494642 -1.318245,1.2558699 -0.506358,1.3099077 -0.940578,1.834178 -1.683893,2.0330563 -0.240524,0.064327 -0.660737,0.064327 -0.901261,0 C 14.409046,7.1497529 14.10596,6.9950389 13.945461,6.8541046 13.64489,6.5901848 13.513794,6.6249213 13.065041,7.0874935 12.773483,7.3880267 12.755233,7.4164539 12.755233,7.5701192 v 0.1632404 l 1.793134,1.7979413 c 1.032582,1.0353231 1.844881,1.8203961 1.91518,1.8508901 0.176797,0.07668 0.307141,0.0075 0.655178,-0.347737 0.423142,-0.43193 0.441017,-0.53918 0.143376,-0.862057 C 16.771365,9.6399782 16.672901,8.8093902 17.019474,8.1254835 17.238856,7.6925781 17.625497,7.3990299 18.594653,6.9296226 19.696594,6.3958513 20.085864,5.9568624 20.083911,5.250048 20.082334,4.687098 19.768433,4.2174659 19.259783,4.0169354 19.004389,3.916257 18.811969,3.8913597 18.555035,3.9257577 M 6.3768215,16.59208 4.4110963,18.558068 4.3795524,19.097847 c -0.017349,0.296891 -0.028277,0.543085 -0.024259,0.547066 0.00402,0.004 0.2496118,-0.0057 0.5457887,-0.02148 l 0.5385034,-0.0288 2.4842506,-2.484251 2.4842879,-2.484288 h -1.0328073 -1.03277 l -1.9657252,1.965988"
     stroke="none"
     fill="currentColor"
     fill-rule="evenodd"
     id="path1-0"
/></svg>
