<?xml version="1.0" encoding="UTF-8" standalone="no"?>
<svg
   fill="#3e8fb0"
   stroke="#3e8fb0"
   stroke-width="0.00024000000000000003"
   viewBox="-4.8 -4.8 33.60 33.60"
   version="1.1"
   id="svg3"
   xml:space="preserve"
   sodipodi:docname="fedora.svg"
   inkscape:version="1.4 (e7c3feb100, 2024-10-09)"
   xmlns:inkscape="http://www.inkscape.org/namespaces/inkscape"
   xmlns:sodipodi="http://sodipodi.sourceforge.net/DTD/sodipodi-0.dtd"
   xmlns="http://www.w3.org/2000/svg"
   xmlns:svg="http://www.w3.org/2000/svg"><sodipodi:namedview
     id="namedview1"
     pagecolor="#ffffff"
     bordercolor="#000000"
     borderopacity="0.25"
     inkscape:showpageshadow="2"
     inkscape:pageopacity="0.0"
     inkscape:pagecheckerboard="0"
     inkscape:deskcolor="#d1d1d1"
     inkscape:zoom="17.500001"
     inkscape:cx="24.62857"
     inkscape:cy="9.7999996"
     inkscape:window-width="1920"
     inkscape:window-height="1080"
     inkscape:window-x="0"
     inkscape:window-y="0"
     inkscape:window-maximized="1"
     inkscape:current-layer="svg3" /><defs
     id="defs3" /><g
     id="SVGRepo_tracerCarrier"
     stroke="#CCCCCC"
     stroke-linecap="round"
     stroke-linejoin="round"
     stroke-width="0.624" /><path
     style="fill:#000000"
     id="path1" /><g
     id="SVGRepo_bgCarrier"
     stroke-width="0"
     transform="matrix(0.36249316,0,0,0.36249316,-45.400084,-31.885799)" /><g
     id="SVGRepo_tracerCarrier-67"
     stroke-linecap="round"
     stroke-linejoin="round"
     transform="matrix(0.36249316,0,0,0.36249316,-45.400084,-31.885799)" /><g
     id="g3"
     transform="matrix(0.08235449,0,0,0.08235449,0.94433881,-12.884108)"><g
       id="g1"
       transform="translate(6.2447804,174.15998)"><path
         d="M 256,128.004 C 256,57.31 198.691,0 127.998,0 57.336,0 0.05,57.262 0,127.914 v 99.054 c 0.038,16.042 13.049,29.029 29.101,29.029 H 128.05 C 198.72,255.969 256,198.679 256,128.004"
         fill="#294172"
         id="path1-3"
         style="fill:#3e8fb0;fill-opacity:1" /><path
         d="m 165.58,30.307 c -33.109,0 -60.045,26.935 -60.045,60.045 v 31.87 H 73.797 c -33.109,0 -60.045,26.937 -60.045,60.046 0,33.108 26.936,60.045 60.045,60.045 33.109,0 60.045,-26.937 60.045,-60.045 v -31.871 h 31.738 c 33.109,0 60.046,-26.936 60.046,-60.045 0,-33.11 -26.937,-60.045 -60.046,-60.045 z m -59.823,151.961 c 0,17.622 -14.337,31.959 -31.96,31.959 -17.623,0 -31.96,-14.337 -31.96,-31.959 0,-17.623 14.337,-31.96 31.96,-31.96 h 31.738 v 0.089 h 0.222 z m 59.823,-59.956 h -31.738 v -0.09 h -0.221 v -31.87 c 0,-17.623 14.337,-31.96 31.959,-31.96 17.622,0 31.96,14.337 31.96,31.96 0,17.623 -14.338,31.96 -31.96,31.96 z"
         fill="#3c6eb4"
         id="path2-5"
         style="fill:#78b1c8;fill-opacity:1" /><path
         d="m 178.851,32.128 c -4.66,-1.218 -8.238,-1.786 -13.271,-1.786 -33.177,0 -60.075,26.899 -60.075,60.074 v 31.842 h -25.16 c -7.845,0 -14.185,6.165 -14.18,13.996 0,7.782 6.27,13.973 14.032,13.973 l 20.831,0.004 c 2.473,0 4.479,2 4.479,4.469 v 27.553 c -0.031,17.491 -14.219,31.659 -31.71,31.659 -5.925,0 -7.392,-0.776 -11.437,-0.776 -8.497,0 -14.182,5.696 -14.182,13.528 0.002,6.479 5.554,12.049 12.348,13.827 4.66,1.218 8.238,1.787 13.271,1.787 33.177,0 60.075,-26.899 60.075,-60.075 v -31.841 h 25.16 c 7.845,0 14.185,-6.165 14.18,-13.996 0,-7.783 -6.27,-13.973 -14.032,-13.973 l -20.831,-0.004 c -2.473,0 -4.479,-2.001 -4.479,-4.47 V 90.366 c 0.031,-17.491 14.219,-31.659 31.71,-31.659 5.925,0 7.392,0.777 11.437,0.777 8.497,0 14.182,-5.697 14.182,-13.528 -0.002,-6.48 -5.554,-12.05 -12.348,-13.828"
         fill="#ffffff"
         id="path3-6"
         style="fill:#ecf4f7;fill-opacity:1" /></g></g></svg>
