<?xml version="1.0" encoding="UTF-8" standalone="no"?>
<svg
   style="color:#3B789A;"
   fill="currentColor"
   stroke="currentColor"
   stroke-width="0.00024000000000000003"
   transform="matrix(1, 0, 0, 1, 0, 0)"
   viewBox="-3.6 -3.6 31.20 31.20"
   version="1.1"
   id="svg3"
   sodipodi:docname="go.svg"
   inkscape:version="1.3.2 (091e20ef0f, 2023-11-25)"
   xmlns:inkscape="http://www.inkscape.org/namespaces/inkscape"
   xmlns:sodipodi="http://sodipodi.sourceforge.net/DTD/sodipodi-0.dtd"
   xmlns="http://www.w3.org/2000/svg"
   xmlns:svg="http://www.w3.org/2000/svg">
  <defs
     id="defs3" />
  <g
     id="SVGRepo_tracerCarrier"
     stroke="#CCCCCC"
     stroke-linecap="round"
     stroke-linejoin="round"
     stroke-width="0.4800000000000001" />
  <g
     id="SVGRepo_iconCarrier">
    <g
       id="g3">
      <path
         d="M0 0h24v24H0z"
         fill="none"
         id="path2" />
      <path
         d="M7.617 8.712l3.205-2.328A1.995 1.995 0 0 1 12.065 6a2.616 2.616 0 0 1 2.427 1.82c.186.583.356.977.51 1.182A4.992 4.992 0 0 0 19 11v2a6.986 6.986 0 0 1-5.402-2.547l-.697 3.955 2.061 1.73 2.223 6.108-1.88.684-2.04-5.604-3.39-2.845a2 2 0 0 1-.713-1.904l.509-2.885-.677.492-2.127 2.928-1.618-1.176L7.6 8.7l.017.012zM13.5 5.5a2 2 0 1 1 0-4 2 2 0 0 1 0 4zm-2.972 13.181l-3.214 3.83-1.532-1.285 2.976-3.546.746-2.18 1.791 1.5-.767 1.681z"
         id="path3" />
    </g>
  </g>
</svg>
