<?xml version="1.0" encoding="UTF-8" standalone="no"?>
<svg
   style="color:#3B789A;"
   fill="currentColor"
   stroke="currentColor"
   stroke-width="0.00024000000000000003"
   viewBox="-4.8 -4.8 33.60 33.60"
   version="1.1"
   id="svg3"
   xml:space="preserve"
   xmlns="http://www.w3.org/2000/svg"
   xmlns:svg="http://www.w3.org/2000/svg"><defs
     id="defs3" /><g
     id="SVGRepo_tracerCarrier"
     stroke="#CCCCCC"
     stroke-linecap="round"
     stroke-linejoin="round"
     stroke-width="0.624" /><path
     id="path1" /><path
     d="M 2.8186259,2.4439962 C 2.4449151,2.6409747 2.2744933,3.0993895 2.4466052,3.4445897 c 0.032978,0.06611 1.3084197,1.3710366 2.8343644,2.8998362 l 2.774452,2.7796355 0.013861,1.8030066 c 0.012959,1.689982 0.018706,1.819497 0.09154,2.065945 0.1199751,0.406165 0.1869492,0.572456 0.3660479,0.909092 0.5261775,0.9891 1.4064204,1.669359 2.5743185,1.98943 0.382875,0.10495 1.4545,0.09691 1.859351,-0.0139 0.378556,-0.103635 0.761695,-0.2623 1.051753,-0.435577 l 0.225377,-0.134624 0.533764,0.531135 0.533803,0.531137 -0.195739,0.140785 c -0.249941,0.179735 -0.836332,0.487412 -1.161137,0.609189 -1.110914,0.41657 -2.506554,0.44538 -3.627236,0.07493 C 8.9132021,16.729219 7.721903,15.676939 7.0993773,14.3488 6.7840014,13.675977 6.6511797,13.152842 6.5901407,12.343217 6.5663621,12.028142 6.5295898,11.79131 6.4932294,11.719302 c -0.296407,-0.58718 -1.0813159,-0.584851 -1.378887,0.0041 -0.1149418,0.22748 -0.061829,1.13503 0.1105466,1.889401 0.1798877,0.787163 0.6208733,1.763002 1.1053558,2.445966 0.3569205,0.503115 1.1399137,1.287836 1.6363792,1.639947 0.8743081,0.620086 1.9760955,1.069033 2.974923,1.212223 l 0.309892,0.04441 v 0.5779 0.577902 h -1.203881 c -1.2915927,0 -1.3138298,0.003 -1.5324443,0.201598 -0.3055721,0.277663 -0.3055721,0.821645 0,1.099308 0.2331512,0.211891 0.05349,0.2016 3.5251403,0.2016 3.471652,0 3.291991,0.01029 3.525142,-0.2016 0.305572,-0.277663 0.305572,-0.821645 0,-1.099308 -0.219253,-0.199273 -0.237434,-0.201602 -1.570006,-0.201602 h -1.241446 v -0.577376 -0.577375 l 0.234768,-0.02555 c 0.3452,-0.0376 1.107459,-0.231423 1.503821,-0.382388 0.629699,-0.239762 1.191374,-0.55187 1.784186,-0.991277 l 0.123318,-0.09143 2.017753,2.013996 c 1.109751,1.107685 2.071804,2.040966 2.137916,2.073946 0.256703,0.128014 0.662905,0.04729 0.861423,-0.171173 0.210802,-0.23195 0.264968,-0.58932 0.128954,-0.850305 C 21.455105,20.357658 3.6164561,2.5246054 3.4496783,2.4414796 3.2969488,2.3653776 2.9652702,2.3666924 2.8186259,2.4439924 m 8.3764691,0.010707 C 10.61062,2.5784685 10.097552,2.7990739 9.6550267,3.1169289 8.9717997,3.6076097 8.3966782,4.3876355 8.3966782,4.8235498 c 0,0.554049 0.5958937,0.9283608 1.0814285,0.679358 0.1697456,-0.087033 0.244683,-0.1691826 0.4734395,-0.5190786 0.2293948,-0.3507975 0.5302718,-0.6170416 0.9054858,-0.8012486 0.400905,-0.1967911 0.678832,-0.263765 1.111666,-0.2678593 0.424683,-0.00399 0.668088,0.046503 1.037968,0.2153842 0.527944,0.2410018 0.937676,0.6443871 1.179504,1.1611363 0.242242,0.5176132 0.232589,0.3917783 0.248365,3.2475909 0.01552,2.8106623 0.0077,2.7031203 0.211327,2.9271443 0.277664,0.305572 0.821646,0.305572 1.099309,0 0.215046,-0.236642 0.205956,-0.09034 0.191757,-3.0849797 -0.01262,-2.6605996 -0.01559,-2.7588259 -0.09154,-3.0132 C 15.723046,4.9579888 15.656748,4.7937649 15.478514,4.4587062 14.959022,3.4821153 14.096772,2.8071143 12.960539,2.487494 12.564141,2.3759701 11.64735,2.3589546 11.195095,2.4547019 M 9.573403,11.52807 c 0.02081,0.972384 0.042145,1.106257 0.2458099,1.541496 0.3061351,0.654154 0.9399681,1.16587 1.6491131,1.331295 0.256627,0.05987 0.755534,0.06078 1.041462,0.0019 0.234616,-0.04834 0.582221,-0.180828 0.582221,-0.221922 0,-0.01304 -0.796028,-0.818077 -1.768938,-1.788997 l -1.7689376,-1.765288 0.019269,0.901503 M 17.918808,11.34634 c -0.310794,0.163849 -0.416645,0.361692 -0.449399,0.840164 -0.0335,0.48993 -0.08151,0.821044 -0.178273,1.229877 -0.07265,0.307037 -0.07682,0.369165 -0.03509,0.525199 0.0633,0.236646 0.192544,0.397263 0.400867,0.49812 0.348244,0.168543 0.82728,0.02644 0.990714,-0.29389 0.165467,-0.324316 0.300693,-1.042928 0.330255,-1.754964 0.02349,-0.565807 0.0021,-0.664259 -0.190142,-0.875812 -0.198669,-0.218651 -0.619296,-0.300312 -0.868937,-0.168694"
     stroke="none"
     fill-rule="evenodd"
     id="path1-6"
     style="stroke-width:0.00000901503;fill:currentColor;fill-opacity:1" /></svg>
