<?xml version="1.0" encoding="UTF-8" standalone="no"?>
<svg
   fill="#3e8fb0"
   stroke="#3e8fb0"
   stroke-width="0.00024000000000000003"
   viewBox="-4.8 -4.8 33.60 33.60"
   version="1.1"
   id="svg3"
   xml:space="preserve"
   xmlns="http://www.w3.org/2000/svg"
   xmlns:svg="http://www.w3.org/2000/svg"><defs
     id="defs3" /><g
     id="SVGRepo_tracerCarrier"
     stroke="#CCCCCC"
     stroke-linecap="round"
     stroke-linejoin="round"
     stroke-width="0.624" /><path
     style="fill:#000000"
     id="path1" /><path
     d="M 11.437131,2.4121191 C 10.481706,2.5864054 9.7590142,2.9685152 9.1300675,3.6319366 8.651849,4.1363393 8.3568075,4.6757043 8.1475212,5.4280694 c -0.063172,0.2271801 -0.067824,0.482195 -0.067824,3.7325654 0,3.8057912 -0.011742,3.5726462 0.2109744,4.1827242 0.3925383,1.075129 1.2830272,1.963254 2.3679474,2.361645 0.489172,0.179613 0.660908,0.206023 1.34121,0.206023 0.513368,0 0.709638,-0.0146 0.900317,-0.06685 0.74475,-0.20411 1.290943,-0.502565 1.796134,-0.981534 0.759042,-0.719578 1.178215,-1.608417 1.230246,-2.608444 0.01913,-0.36808 0.01264,-0.452109 -0.04333,-0.562699 -0.301682,-0.59601 -1.085633,-0.605951 -1.379999,-0.01748 -0.03095,0.06189 -0.06745,0.239147 -0.08111,0.393889 -0.05105,0.578716 -0.2127,1.015934 -0.526274,1.423439 -0.305469,0.396965 -0.856313,0.746063 -1.36443,0.864642 -0.256853,0.05994 -0.806272,0.05994 -1.063125,0 -0.724643,-0.16911 -1.351677,-0.682665 -1.6610855,-1.360454 -0.2344952,-0.513631 -0.226955,-0.386312 -0.226955,-3.8349018 0,-3.4485902 -0.00754,-3.3212703 0.226955,-3.8349013 0.3094085,-0.677789 0.9364425,-1.1913449 1.6610855,-1.3604546 0.256853,-0.059946 0.806272,-0.059946 1.063125,0 0.710463,0.1658086 1.342935,0.6759508 1.649043,1.3300688 0.218928,0.4678649 0.227631,0.5344134 0.24755,1.8958432 0.01996,1.3608294 0.02652,1.4043823 0.241022,1.5993012 0.307684,0.2796235 0.799857,0.2660437 1.068377,-0.029487 0.208986,-0.229956 0.208236,-0.2229785 0.19128,-1.732773 C 15.912007,5.5455234 15.90897,5.5180637 15.697732,4.9419356 15.323651,3.9216887 14.402963,3.0049031 13.37105,2.6251192 12.929369,2.4625367 12.690147,2.4213473 12.112368,2.4082176 c -0.319799,-0.00728 -0.623657,-0.00551 -0.675237,0.0039 M 5.4912853,11.304965 c -0.1647584,0.08684 -0.2793234,0.200847 -0.3600146,0.358177 -0.1260442,0.245786 -0.080466,1.116956 0.099673,1.905297 0.1796509,0.786126 0.620056,1.760683 1.1039016,2.442748 0.3564507,0.502451 1.1384137,1.28614 1.634226,1.637789 0.8731576,0.619268 1.9734955,1.067627 2.9710087,1.210627 l 0.309485,0.04434 v 0.595898 0.595897 h -1.201924 c -1.1076526,0 -1.2128397,0.0056 -1.3410973,0.07139 -0.5737648,0.294255 -0.5632986,1.074604 0.018382,1.368483 0.1077756,0.05447 0.4465949,0.06066 3.3120423,0.06066 3.06378,0 3.19759,-0.0028 3.331174,-0.07139 0.269195,-0.138049 0.420524,-0.382335 0.420524,-0.678876 0,-0.296543 -0.151329,-0.540829 -0.420524,-0.678878 -0.12852,-0.06591 -0.234082,-0.07139 -1.37861,-0.07139 H 12.750093 V 19.49984 18.903942 l 0.309484,-0.04434 c 0.997515,-0.143 2.097852,-0.591359 2.97101,-1.210627 0.495813,-0.351649 1.277776,-1.135338 1.634226,-1.637789 0.483846,-0.682066 0.924251,-1.656622 1.103901,-2.442749 0.172149,-0.753378 0.225193,-1.659735 0.110402,-1.886915 -0.29718,-0.58817 -1.081056,-0.590496 -1.377073,-0.0041 -0.03631,0.07192 -0.07304,0.308434 -0.09678,0.623095 -0.06096,0.808559 -0.193606,1.331006 -0.508566,2.002943 -0.711139,1.517184 -2.157798,2.659163 -3.797802,2.997906 -0.644177,0.13306 -1.553947,0.13306 -2.198125,0 C 9.2607635,16.962634 7.8141038,15.820655 7.1029656,14.303471 6.7880047,13.631534 6.6553579,13.109087 6.5943989,12.300528 6.546157,11.66059 6.462765,11.479588 6.1398887,11.314005 c -0.1709102,-0.08767 -0.4910481,-0.09213 -0.6486034,-0.009"
     stroke="none"
     fill="#c1a5f9"
     fill-rule="evenodd"
     id="path1-93"
     style="stroke-width:0.0000090032;fill:#3e8fb0;fill-opacity:1" /></svg>
