<?xml version="1.0" encoding="UTF-8" standalone="no"?>
<svg
   style="color:#794379;"
   fill="currentColor"
   stroke="currentColor"
   stroke-width="0.00024000000000000003"
   viewBox="-4.8 -4.8 33.60 33.60"
   version="1.1"
   id="svg3"
   xml:space="preserve"
   xmlns="http://www.w3.org/2000/svg"
   xmlns:svg="http://www.w3.org/2000/svg"><defs
     id="defs3" /><g
     id="SVGRepo_tracerCarrier"
     stroke-linecap="round"
     stroke-linejoin="round"
     stroke-width="0.624" /><path
     style="fill:currentColor"
     id="path1" /><path
     d="M 14.501901,3.3336389 C 12.021648,3.8588511 9.9416184,4.3043196 9.8796122,4.3235979 9.3788642,4.4791398 8.7788309,4.9974374 8.5554578,5.4674077 8.3076956,5.9887117 8.3200593,5.722761 8.3200593,10.527837 v 4.362727 L 8.1061188,14.753699 C 7.5216059,14.37982 6.9830905,14.215597 6.2498001,14.187675 c -0.5453925,-0.02074 -0.9009706,0.02732 -1.3665065,0.184817 -0.607474,0.205485 -1.2621104,0.667676 -1.6738323,1.181765 -0.5548626,0.692854 -0.8269764,1.463988 -0.8269764,2.343613 0,0.879626 0.2721138,1.650758 0.8269764,2.343613 1.1042009,1.37872 3.0576253,1.779431 4.6337883,0.950501 0.7721853,-0.406085 1.4374942,-1.150725 1.7336966,-1.940497 0.2415239,-0.643776 0.2231099,-0.250017 0.2450564,-5.242315 L 9.8420322,9.4627941 14.915277,8.3829823 C 17.70556,7.7890745 20.018134,7.3025316 20.054284,7.30178 c 0.062,-0.00128 0.06576,0.1466355 0.06576,2.5911877 V 12.48547 l -0.21394,-0.136864 c -0.584513,-0.37388 -1.123027,-0.538102 -1.856319,-0.566024 -0.736221,-0.02804 -1.263763,0.08839 -1.889501,0.416983 -0.80176,0.421041 -1.497771,1.230205 -1.782136,2.071875 -0.262494,0.776958 -0.262494,1.665715 0,2.442673 0.204508,0.60522 0.667526,1.260758 1.181088,1.672066 0.503905,0.40353 1.015438,0.640807 1.665603,0.772562 0.564145,0.114279 1.545348,0.03247 1.936927,-0.161593 0.523859,-0.259562 0.586166,-0.925886 0.12157,-1.300028 -0.179781,-0.144794 -0.462643,-0.173355 -0.813486,-0.08215 -0.289138,0.07516 -0.78203,0.08474 -1.060196,0.02063 -0.791125,-0.182373 -1.467294,-0.858618 -1.649668,-1.649894 -0.05975,-0.259224 -0.05975,-0.726639 0,-0.985863 0.182411,-0.791388 0.858543,-1.46752 1.649932,-1.649931 0.259223,-0.05975 0.726639,-0.05975 0.985863,0 0.351406,0.08098 0.730058,0.286581 1.002473,0.544264 0.433781,0.410294 0.614839,0.796086 0.700558,1.492549 0.04427,0.359562 0.06505,0.430625 0.160352,0.548399 0.203869,0.251858 0.285229,0.290452 0.612472,0.290452 0.328972,0 0.408227,-0.0381 0.617884,-0.297141 l 0.114918,-0.141976 0.0098,-5.734494 c 0.0086,-5.0667807 0.003,-5.761026 -0.04826,-5.9623022 C 21.427105,3.5442349 21.105724,3.0845614 20.64342,2.7701329 20.23478,2.4921944 19.971647,2.409369 19.443617,2.3925333 l -0.432166,-0.013792 -4.50955,0.9548973 m 4.753817,0.5756817 C 18.915661,3.9651263 10.384945,5.769059 10.300842,5.8029558 10.135041,5.8697723 10.015688,5.9797302 9.9259477,6.148425 9.8491727,6.2927305 9.8418823,6.3652216 9.8298192,7.1046751 L 9.8167418,7.904782 9.9045653,7.88385 C 10.117942,7.8330426 20.065033,5.7220844 20.091001,5.7220844 c 0.04352,0 0.03499,-1.0207743 -0.01026,-1.2318212 C 19.999681,4.1122503 19.625351,3.848667 19.255718,3.9093205 M 5.8196641,15.71987 c -0.5105187,0.06671 -0.9471559,0.293309 -1.3153982,0.682596 -0.3907525,0.413074 -0.5909014,0.91961 -0.5909014,1.495404 0,0.612585 0.2058234,1.105591 0.6448657,1.544634 0.4390423,0.439042 0.9320489,0.644866 1.5446337,0.644866 0.6125848,0 1.1055913,-0.205824 1.5446336,-0.644866 0.4390423,-0.439043 0.6448656,-0.932049 0.6448656,-1.544634 0,-0.612585 -0.2058233,-1.105592 -0.6448656,-1.544633 C 7.1512216,15.85696 6.4993285,15.631069 5.8196641,15.71987"
     stroke="none"
     fill="currentColor"
     fill-rule="evenodd"
     id="path1-6"
     style="fill:currentColor;" /></svg>
