<?xml version="1.0" encoding="UTF-8" standalone="no"?>
<svg
   style="color:#3B789A;"
   fill="currentColor"
   id="svg3"
   stroke="currentColor"
   stroke-width="0.00024"
   version="1.1"
   viewBox="2.57 2.57 33.599997 33.599997"
   xml:space="preserve"
   sodipodi:docname="record.svg"
   width="33.599998"
   height="33.599998"
   inkscape:version="1.3.2 (091e20ef0f, 2023-11-25)"
   xmlns:inkscape="http://www.inkscape.org/namespaces/inkscape"
   xmlns:sodipodi="http://sodipodi.sourceforge.net/DTD/sodipodi-0.dtd"
   xmlns="http://www.w3.org/2000/svg"
   xmlns:svg="http://www.w3.org/2000/svg">
  <defs
   id="defs3" />
  <g
   id="g2"
   transform="translate(4.2350767,4.2350766)">
    <g
   id="SVGRepo_tracerCarrier"
   stroke-linecap="round"
   stroke-linejoin="round"
   stroke-width="0.624"
   transform="translate(-0.72550279,2.3750192)" />
    <path
   d="m 5.7301508,5.7301511 h 2.089949 v 2.0899491 h -2.089949 z m 4.1798984,0 H 11.999999 V 7.8201002 H 9.9100492 Z m 4.1798988,0 h 2.089949 v 2.0899491 h -2.089949 z m 4.179898,0 h 2.089949 v 2.0899491 h -2.089949 z m 4.179898,0 h 2.08995 v 2.0899491 h -2.08995 z m 0,4.1798978 h 2.08995 v 2.0899491 h -2.08995 z M 5.7301508,22.449744 h 2.089949 v 2.08995 h -2.089949 z m 0,-4.179898 h 2.089949 v 2.089949 h -2.089949 z m 0,-4.179898 h 2.089949 v 2.089949 h -2.089949 z m 0,-4.1798991 h 2.089949 v 2.0899491 h -2.089949 z"
   id="path3"
   style="stroke-width:0.000250794" />
    <g
   id="g1"
   style="fill:currentColor;fill-opacity:1"
   transform="matrix(0.91613785,0,0,0.91613785,9.8815042,9.881504)">
      <g
   id="SVGRepo_bgCarrier"
   stroke-width="0"
   style="fill:currentColor;fill-opacity:1" />
      <g
   id="SVGRepo_tracerCarrier-3"
   stroke-linecap="round"
   stroke-linejoin="round"
   style="fill:currentColor;fill-opacity:1" />
      <g
   id="SVGRepo_iconCarrier-5"
   style="fill:currentColor;fill-opacity:1">
        <path
   d="M 6,3 A 3,3 0 1 1 0,3 3,3 0 0 1 6,3 Z"
   id="path1"
   style="fill:currentColor;fill-opacity:1" />
        <path
   d="M 9,6 A 3,3 0 1 1 9,0 3,3 0 0 1 9,6 Z"
   id="path2-6"
   style="fill:currentColor;fill-opacity:1" />
        <path
   d="m 9,6 h 0.5 a 2,2 0 0 1 1.983,1.738 l 3.11,-1.382 A 1,1 0 0 1 16,7.269 v 7.462 a 1,1 0 0 1 -1.406,0.913 L 11.483,14.262 A 2,2 0 0 1 9.5,16 H 2 A 2,2 0 0 1 0,14 V 8 A 2,2 0 0 1 2,6 Z"
   id="path3-2"
   style="fill:currentColor;fill-opacity:1" />
      </g>
    </g>
  </g>
</svg>
