<?xml version="1.0" encoding="UTF-8" standalone="no"?>
<svg
   style="color:#A64545;"
   fill="currentColor"
   stroke="currentColor"
   stroke-width="0.43200000000000005"
   viewBox="0 0 24 24"
   version="1.1"
   id="svg1"
   sodipodi:docname="resize.svg"
   inkscape:version="1.3.2 (091e20ef0f, 2023-11-25)"
   xmlns:inkscape="http://www.inkscape.org/namespaces/inkscape"
   xmlns:sodipodi="http://sodipodi.sourceforge.net/DTD/sodipodi-0.dtd"
   xmlns="http://www.w3.org/2000/svg"
   xmlns:svg="http://www.w3.org/2000/svg">
  <defs
     id="defs1" />
  <g
     id="SVGRepo_bgCarrier"
     stroke-width="0" />
  <g
     id="SVGRepo_tracerCarrier"
     stroke-linecap="round"
     stroke-linejoin="round" />
  <g
     id="SVGRepo_iconCarrier"
     transform="matrix(0.70456304,0,0,0.70456304,3.544766,3.544766)"
     style="fill:currentColor;fill-opacity:1;stroke:currentColor;stroke-width:0.431473;stroke-dasharray:none;stroke-opacity:1">
    <path
       d="m 19.5,21 c 0.828427,0 1.5,-0.671573 1.5,-1.5 v -8 C 21,10.671573 20.328427,10 19.5,10 h -8 C 10.671573,10 10,10.671573 10,11.5 v 8 c 0,0.828427 0.671573,1.5 1.5,1.5 z M 5,20.292893 6.1464466,19.146447 c 0.1952622,-0.195263 0.5118446,-0.195263 0.7071068,0 0.1952621,0.195262 0.1952621,0.511844 0,0.707106 l -2,2 c -0.1952622,0.195262 -0.5118446,0.195262 -0.7071068,0 l -2,-2 c -0.1952621,-0.195262 -0.1952621,-0.511844 0,-0.707106 0.1952622,-0.195263 0.5118446,-0.195263 0.7071068,0 L 4,20.292893 V 7.5 C 4,7.2238576 4.2238576,7 4.5,7 4.7761424,7 5,7.2238576 5,7.5 Z M 20.292893,4 19.146447,2.8535534 c -0.195263,-0.1952622 -0.195263,-0.5118446 0,-0.7071068 0.195262,-0.1952621 0.511844,-0.1952621 0.707106,0 l 2,2 c 0.195262,0.1952622 0.195262,0.5118446 0,0.7071068 l -2,2 c -0.195262,0.1952621 -0.511844,0.1952621 -0.707106,0 -0.195263,-0.1952622 -0.195263,-0.5118446 0,-0.7071068 L 20.292893,5 H 7.5 C 7.2238576,5 7,4.7761424 7,4.5 7,4.2238576 7.2238576,4 7.5,4 Z M 19.5,22 h -8 C 10.119288,22 9,20.880712 9,19.5 v -8 C 9,10.119288 10.119288,9 11.5,9 h 8 c 1.380712,0 2.5,1.119288 2.5,2.5 v 8 c 0,1.380712 -1.119288,2.5 -2.5,2.5 z"
       id="path1"
       style="fill:currentColor;fill-opacity:1;stroke:currentColor;stroke-width:0.431473;stroke-dasharray:none;stroke-opacity:1" />
  </g>
</svg>
