<?xml version="1.0" encoding="UTF-8" standalone="no"?>
<svg
   style="color:#416D8B;"
   fill="currentColor"
   stroke="currentColor"
   stroke-width="0.00024000000000000003"
   viewBox="-4.8 -4.8 33.60 33.60"
   version="1.1"
   id="svg3"
   xml:space="preserve"
   xmlns="http://www.w3.org/2000/svg"
   xmlns:svg="http://www.w3.org/2000/svg"><defs
     id="defs3" /><g
     id="SVGRepo_tracerCarrier"
     stroke-linecap="round"
     stroke-linejoin="round"
     stroke-width="0.624" /><path
     style="fill:currentColor"
     id="path1" /><path
     d="M 12.027663,2.4259621 C 11.753966,2.4981721 11.409974,2.6683287 11.18773,2.8414911 11.0887,2.9186271 10.033893,4.1126743 8.8436869,5.494924 L 6.6796879,8.0081037 H 5.8542347 c -0.963636,0 -1.242899,0.043171 -1.719057,0.2655355 -0.8428299,0.3937498 -1.3835658,1.015726 -1.666628,1.9172348 -0.086397,0.27516 -0.08816,0.311152 -0.08816,1.804016 0,1.492865 0.00173,1.528865 0.08816,1.804026 0.3237196,1.030886 1.0198659,1.73267 2.055678,2.072415 0.2397345,0.07862 0.3482046,0.08771 1.2130745,0.101657 l 0.9497957,0.01536 2.1819392,2.532621 c 1.2000599,1.392934 2.2535879,2.585736 2.3411839,2.65062 0.220627,0.163533 0.646837,0.361212 0.885104,0.410518 1.416815,0.293293 2.81046,-0.829853 2.747499,-2.214244 -0.01117,-0.245867 -0.02858,-0.309388 -0.116483,-0.424587 -0.165789,-0.217393 -0.316422,-0.304281 -0.55781,-0.321731 -0.1181,-0.0082 -0.275353,0.0045 -0.349447,0.0289 -0.178126,0.0588 -0.428917,0.345198 -0.457954,0.523064 -0.09297,0.56917 -0.158606,0.693695 -0.441818,0.838205 -0.183279,0.0935 -0.559805,0.08553 -0.713297,-0.01509 C 12.153175,19.961994 11.081854,18.740111 9.8253394,17.28132 8.0009325,15.163175 7.5092037,14.613682 7.3840332,14.553051 7.2407725,14.483704 7.1514833,14.477069 6.345889,14.475979 5.8611176,14.475352 5.348403,14.459801 5.2064948,14.441532 4.5156153,14.352554 3.9905619,13.825046 3.9008973,13.129951 c -0.04239,-0.328684 -0.04179,-1.946 8.434e-4,-2.276947 C 3.9895648,10.171533 4.508297,9.6469329 5.1921428,9.5480115 5.3212623,9.5292888 5.8319856,9.5137471 6.327099,9.5132927 7.1464218,9.5126656 7.2411261,9.5060217 7.3811157,9.4380382 7.5023736,9.3793252 8.0185509,8.8022926 9.8227219,6.7083666 11.081005,5.2479985 12.163794,4.0206321 12.228936,3.9809144 c 0.08274,-0.050433 0.188018,-0.072255 0.349258,-0.072328 0.198475,-1.054e-4 0.256057,0.01696 0.41109,0.1220858 0.104108,0.070592 0.21318,0.1857995 0.258126,0.2726811 0.07748,0.1496927 0.07793,0.1784276 0.09666,5.8485477 0.01719,5.209753 0.02415,5.70776 0.08105,5.810926 0.317476,0.575496 1.206981,0.495979 1.386537,-0.123925 0.02817,-0.0973 0.03697,-1.881879 0.02918,-5.9126733 L 14.829711,4.152909 14.744068,3.9006876 C 14.628564,3.560382 14.322597,3.1129207 14.063117,2.9048185 13.81274,2.7040127 13.41267,2.504034 13.101098,2.4239971 12.823,2.3525326 12.302311,2.3534415 12.027674,2.4259057"
     stroke="none"
     fill="currentColor"
     fill-rule="evenodd"
     id="path1-9"
     style="fill:currentColor;fill-opacity:1;stroke-width:9.02669e-06" /><path
     d="m 17.051235,9.5262061 c -0.08067,0.046157 -0.198182,0.1478946 -0.2612,0.226123 -0.09401,0.1167233 -0.117212,0.1842485 -0.129455,0.3763469 -0.01367,0.214592 -8.94e-4,0.263715 0.153303,0.590111 0.226273,0.478911 0.295262,0.7827 0.29361,1.293457 -0.0016,0.48736 -0.08037,0.816312 -0.306604,1.279335 -0.114658,0.234761 -0.147556,0.346039 -0.147556,0.499417 0,0.435007 0.324067,0.758399 0.758624,0.757084 0.400907,-0.0012 0.660493,-0.26871 0.930068,-0.95812 0.219889,-0.562472 0.267247,-0.795317 0.289892,-1.426065 0.0293,-0.81526 -0.07196,-1.330863 -0.398278,-2.028009 C 18.067145,9.7802577 17.935363,9.6146367 17.739209,9.514551 17.539263,9.4125496 17.241108,9.41762 17.051226,9.5261943"
     stroke="none"
     fill="currentColor"
     fill-rule="evenodd"
     id="path1-0"
     style="stroke-width:0.00000901338;fill:currentColor;fill-opacity:1" /></svg>
