<?xml version="1.0" encoding="UTF-8" standalone="yes"?>
<svg height="143.65057mm" id="svg1" version="1.1" viewBox="0 0 873.17613 542.93132" width="231.02785mm" xml:space="preserve" xmlns="http://www.w3.org/2000/svg" xmlns:svg="http://www.w3.org/2000/svg">
  <defs id="defs1"></defs>
  <g id="layer1" transform="translate(-111.93719,-160.79702)">
    <g id="g9" style="filter:url(#filter15)" transform="matrix(3.7795276,0,0,3.7795276,-34.01696,200.1507)">
      <g id="g1" transform="matrix(1.0609092,0,0,1.0889715,-6.6825558,2.3228072)">
        <path d="M 72.373205,50.797111 C 72.370282,50.797579 72.336621,31.31237 72.24861,10.9275 72.2366,8.1457648 68.567499,5.6216656 70.310571,3.4637618 71.041122,2.5593474 74.469519,2.8358213 75.761538,2.8460989 l 0.155,0.2856128 c 3.551032,4.6627341 7.057752,9.3597463 10.607933,14.0229913 0.162937,0.212776 0.309121,0.414493 0.324856,0.448261 0.03884,0.08342 0.03442,30.636654 -0.0046,30.830987 -0.01698,0.08484 -0.05648,0.213754 -0.08773,0.286475 -0.03125,0.07272 -0.0751,0.181792 -0.09743,0.242395 -0.208182,0.565189 -0.809044,1.134384 -1.456861,1.380073 -0.410603,0.155724 -0.591277,0.193812 -1.499899,0.316207 -1.181952,0.15921 -2.617997,0.362775 -3.101253,0.439598 -0.232134,0.03687 -0.777149,0.11635 -1.211144,0.176547 -0.433987,0.06019 -1.35886,0.19036 -2.055265,0.289252 -1.54824,0.219865 -1.685433,0.239247 -2.330528,0.329178 -0.282599,0.03938 -0.801531,0.15092 -1.19279,0.18182 -0.451217,0.03564 -2.596754,-0.183008 -2.867613,-0.558781 -0.168151,-0.23328 1.430314,-0.719816 1.429016,-0.719609 z" id="path15" style="fill:#3e8fb0;fill-opacity:1;stroke-width:0.564225"></path>
        <path d="m 75.722007,2.8551053 c 0.09843,-0.048087 10.976844,-5.3012922 11.07595,-5.1695966 5.693493,9.0876514 18.048973,28.5816473 18.048973,28.5816473 l -0.0655,15.027051 C 91.601917,24.37615 90.298279,22.54921 75.722007,2.8551053 Z" id="path14" style="fill:#ea9a97;fill-opacity:1;stroke-width:0.564225"></path>
        <path d="m 104.75172,3.6018199 5.94755,7.4937191 -0.003,21.564256 -5.91329,8.639489 c 0,0 0.0332,-37.585076 -0.0316,-37.6974641 z" id="path10" style="fill:#d7827e;fill-opacity:1;stroke-width:0.564225"></path>
        <path d="m 51.217764,18.593359 c -0.224405,-0.02681 -0.472113,0.08571 -0.648953,0.311315 -0.181991,0.232182 -1.336386,2.114156 -1.398953,2.262206 -0.322642,0.763452 -0.06107,1.353075 0.0044,1.480371 0.05522,0.107355 18.078567,24.390385 21.747247,28.86241 0.01352,0.01628 0.666887,0.11544 1.018661,-0.102806 0.329398,-0.175298 0.485209,-0.353419 0.483461,-0.863688 l -0.01897,-5.537651 c 7.175194,2.383826 7.184061,2.379228 13.635339,4.390913 0.251728,0.0785 0.365434,-0.297877 0.450788,-0.52527 0.0096,-0.09843 0.04641,-0.215164 -0.189297,-0.290825 C 79.837204,46.505316 79.838825,46.48067 72.358742,43.85788 l 0.02844,-5.050946 c 0,0 -0.23663,-0.241798 -0.368783,-0.36361 -0.988059,-0.91075 -15.993072,-15.506008 -20.587634,-19.775341 -0.06614,-0.04081 -0.138216,-0.06548 -0.213018,-0.07443 z" id="path12" style="fill:#6e6a86;fill-opacity:1;stroke-width:0.564225;filter:url(#filter15)"></path>
        <path d="m 50.737881,35.863506 c -0.241794,-0.150608 -0.16347,-0.0383 -1.378501,-1.976411 -0.288032,-0.466517 -0.561969,-1.000025 -0.423602,-1.553217 0.04723,-0.2971 0.213262,-0.596774 0.59283,-1.112829 0.935883,-1.272413 3.036927,-4.012333 3.036927,-4.012333 l 3.242538,4.342677 c 0,0 -4.235082,4.20139 -4.525673,4.347201 -0.169145,0.08487 -0.373026,0.07173 -0.544512,-0.03509 z m 4.835868,-13.248999 c 0,0 2.817004,-3.557637 14.666227,-19.0946179 0.307818,-0.4036181 1.104972,-0.4750517 1.499342,-0.2662868 0.224948,0.1190797 0.606987,0.5410083 0.678663,0.78484 -0.076,3.8847447 -0.083,7.7744277 -0.09977,11.6612077 l -0.275259,0.257199 C 66.547832,21.136238 60.349575,27.232912 60.357988,27.21089 Z" id="path9" style="fill:#286983;fill-opacity:1;stroke-width:0.564225;filter:url(#filter15)"></path>
      </g>
      <path d="M 91.78698,133.23823 C 85.53403,127.82429 78.756456,122.84295 70.785643,120.32149 64.319808,117.92006 66.150523,107.52132 57.546915,108.29235 50.786423,104.34495 42.950024,96.852006 41.892121,95.658903 38.384703,92.580163 39.419695,73.665091 38.757668,62.711316 38.699032,42.675818 38.573651,22.640305 38.632265,2.6046475 38.666053,2.4586705 77.11036,-10.412328 77.11036,-10.412328 l 41.49638,11.1842877 c 0,0 -0.20129,30.7606633 0.2112,57.6818763 0.32119,20.962243 1.27914,39.596637 1.27961,39.568637 -3.63576,3.484017 -6.35718,8.081067 -4.59709,12.845887 -3.24397,5.74146 -5.08697,11.98891 -5.35079,18.43544 -4.94402,2.7861 -11.6571,-0.39301 -16.75126,3.41998 l -0.80488,0.26583 z m 1.43223,-2.94751 c 4.5014,-2.07777 12.85598,0.268 14.10538,-5.13885 -0.2735,-3.09152 -0.31179,-4.95293 2.57074,-5.00547 1.75196,-3.12681 4.20622,-9.83357 -1.74186,-7.20749 -5.10635,1.15276 -10.19269,0.50591 -15.29597,0.42569 -4.74409,0.39846 4.1734,8.32607 -0.78473,3.2856 -2.09161,-3.20089 -6.88728,-3.94473 -7.19792,-7.36712 2.641498,16.0956 -11.916029,-10.640932 -7.799436,2.28993 0.972195,2.97971 -1.821843,5.56094 -1.676468,1.01612 -0.59826,-5.72204 4.250478,-11.77427 4.227575,-16.148837 -4.428472,-1.82885 -5.085992,11.002297 -9.512485,3.546687 -4.539317,-2.609357 -2.864642,-6.737587 2.287615,-5.282177 4.591101,-0.67132 11.33828,2.14748 6.044416,6.937997 -0.05469,5.08596 6.096803,-3.212377 4.895571,-3.789317 3.727412,5.206097 11.757542,4.208527 16.868792,7.049267 2.7229,0.88763 11.27376,-1.27608 5.15343,-3.42276 -9.36213,0.1854 -1.66564,-11.709917 3.43915,-13.005507 5.89588,-0.15442 4.29243,8.86793 3.35084,12.884627 0.0472,6.11524 2.81444,-3.208447 5.63844,-4.012657 4.22802,-5.6946 -5.53665,-8.14965 -7.87912,-12.171052 -5.12761,-6.236832 8.05463,-7.119421 6.04322,-13.353188 -3.61045,4.085546 -6.86582,10.536253 -13.48804,7.478752 -3.07454,-0.31065 -4.84633,-2.02937 -0.7526,-0.508672 5.41525,3.00247 14.27917,-2.428131 8.82071,-8.208977 -0.0285,-4.703188 1.69732,1.126683 2.41697,2.213428 4.4962,-1.828805 3.18316,-7.208305 3.38144,-11.071422 V 2.2714955 L 77.146803,-8.5771185 40.648272,4.1139705 c 0.204069,27.1565505 -0.181194,53.1641095 0.669449,80.2927485 -0.14389,7.716924 4.604216,13.229494 10.89573,16.742181 8.807991,15.63669 13.576453,-7.027479 7.727067,1.38937 -1.919038,-3.087357 0.346419,3.02399 -2.832507,-0.062 -2.212726,-2.30104 -4.126142,-9.074957 1.083113,-5.664877 4.595223,0.24654 6.780263,8.700817 10.069822,6.939027 -1.352822,-1.72024 -7.933769,-9.675287 -2.91165,-4.756697 2.574265,2.117477 5.326411,9.686797 4.712328,9.948437 -0.121524,-3.94078 -4.398164,-5.55547 -3.250875,-0.39876 0.437532,7.54414 7.174003,12.58324 13.97503,14.34625 5.090011,0.69787 8.448301,6.52155 12.433431,7.4011 z m 0.60899,-2.10027 c -0.79793,-4.491 9.48781,-7.11494 8.58516,-6.04761 -4.04457,-0.29595 -6.28748,3.39904 -8.58516,6.04761 z m -3.22388,-6.94442 c -3.2639,0.0949 -8.011484,-7.10297 -2.63133,-2.11692 1.70563,1.22576 8.41228,4.49677 2.63133,2.11692 z m 7.29349,-24.401717 c -0.28752,-5.43158 9.50954,-11.04651 2.98165,-3.38045 -0.94905,1.1657 -1.97564,2.26452 -2.98165,3.38045 z m -10.10359,-0.43027 c -5.851144,-2.7713 -7.246706,-9.115662 -3.782244,-14.293903 4.218474,-4.11049 13.892384,-4.014341 17.089794,1.387497 1.95924,5.590366 -4.22197,9.373736 -8.32826,11.709806 -1.54444,0.73771 -3.24324,1.32267 -4.97929,1.1966 z m -33.700859,-3.71806 c 0.630663,-5.489087 -8.523951,-3.06336 -7.98752,-4.2184 3.451872,-4.030499 10.757842,4.52006 7.987492,4.2184 z m 2.875888,0.0875 c 6.319418,-1.42196 13.000417,-2.07289 19.219264,-3.24914 1.904917,-2.602126 1.363281,-5.238681 -0.544671,-1.49716 0.07156,-4.249486 8.437298,-6.395218 5.453102,-11.386495 -1.495852,-3.827932 -6.554139,-5.976648 -8.737499,-7.97144 5.693597,1.631728 13.986085,10.070958 7.264623,15.134743 -0.807732,6.248282 -7.745216,7.679722 -13.353146,7.668892 -3.122511,0.58737 -6.114962,1.22557 -9.301673,1.3006 z m 0.854566,-1.93397 c -5.272056,-1.42539 -7.701054,-6.501507 -6.806972,-11.589741 -0.893201,-2.412929 0.947574,-10.813531 1.923056,-8.771793 -1.72174,5.401022 -3.757486,14.041234 1.805537,17.660804 0.649667,0.56736 7.318515,2.23554 3.078379,2.70073 z m 46.579515,-3.566572 c -2.6154,-3.630672 3.48471,2.386632 0,0 z M 93.82876,77.911142 c 2.46287,-0.604218 4.45768,-10.070644 4.69215,-7.287641 -1.27835,2.481121 -1.00872,7.077036 -4.69215,7.287641 z m -9.01063,-0.470817 c -1.152301,-1.832108 -6.121543,-9.695387 -1.865521,-4.567571 0.206944,0.478036 3.558301,5.939335 1.865521,4.567571 z m 5.70764,-0.183719 c 0.56015,-0.31084 0.17131,0.294122 0,0 z m 5.66385,-7.149694 c 0.84584,-1.811652 -3.38464,-9.408809 -1.17308,-7.642481 0.69777,2.419708 2.29244,5.111806 1.17308,7.642481 z m 3.90851,-1.525684 c 0.32801,-1.855628 0.14321,-10.946316 1.7284,-5.16788 -0.21876,1.780407 -0.32658,3.861554 -1.7284,5.16788 z m 8.00421,59.465362 c 1.47839,-4.68879 -2.22464,1.53449 0,0 z m -5.31643,-14.52041 c 4.46809,-7.62049 -12.56564,-4.22638 -4.31514,-0.15071 1.83111,-2.47336 0.4523,-5.84897 1.59938,-0.90381 0.5783,0.83864 1.69739,1.41004 2.71576,1.05452 z M 85.0117,113.14355 c -0.8833,-3.04713 -1.928846,-9.92075 0.75045,-5.6296 1.17011,-2.14095 9.12831,-3.93456 4.20902,-0.5388 -1.5249,5.64641 8.10641,-0.83812 5.30938,-0.74343 -0.71978,5.88382 5.422,-2.20663 1.06763,-0.23781 -0.008,-4.0838 -9.41498,-2.76333 -12.508877,-6.599707 -0.60538,4.320357 -1.510119,9.410147 1.172397,13.749347 z m 6.07921,-0.14972 c 3.59878,-3.53104 -5.54083,-4.40002 -3.00974,-0.26824 0.71503,-3.31311 -3.37593,-3.92626 -1.39951,-0.41794 1.33166,0.654 2.93252,1.28303 4.40925,0.68618 z m 4.27596,-0.18983 c 3.6005,-4.9691 -7.19101,-3.91048 -2.23629,-0.0902 l 1.1145,0.0974 z m 10.83462,0.0999 c 3.36419,-5.39285 -6.79876,-2.17807 -1.22024,0.18272 l 0.62853,0.0491 z m 2.78334,-0.60057 c 3.11736,-5.97884 -6.25307,-0.85399 0,0 z m 2.84577,-0.63638 c 3.06023,-6.63101 -6.19543,0.60938 0,0 z m -30.228022,-0.69051 c -1.674641,-1.03269 1.167591,1.59977 0,0 z m 31.455202,0.0357 c 2.7173,-2.90855 -2.49261,-1.69932 0,0 z M 66.18606,109.5305 c -0.281966,-0.66007 -0.378381,0.43865 0,0 z m 23.07561,-0.56113 c 1.22493,-7.6396 -7.547799,1.13933 0,0 z m 20.23746,-0.20735 c 2.7305,-5.97355 -4.85431,-1.63336 -0.9943,0.17668 z m -2.1471,-0.18318 c 2.13093,-6.59045 -7.20742,-0.45229 0,0 z m -41.315211,-0.54685 c -0.885306,-1.22222 0.331849,2.00105 0,0 z m 38.385041,0.54621 c 1.69548,-4.75032 -5.24047,-3.96238 -3.12297,-0.0179 1.0061,0.37795 2.09421,-0.0413 3.12297,0.0179 z m 6.65291,-0.31298 c 3.10031,-2.21145 -1.73003,-5.74981 -0.90504,-0.91041 -0.31559,0.63011 0.22808,1.65257 0.90504,0.91041 z m -10.77239,-1.03223 c 0.28402,-5.09717 -4.58107,3.48505 0.14357,0.47396 l -0.0961,-0.3174 -0.0474,-0.15656 z m 13.06899,0.89449 c -0.43539,-2.63045 -1.99375,0.34867 0,0 z m -3.9951,-4.29606 c 5.49798,-0.15931 -1.03209,-7.355197 -1.22661,-1.85657 0.0944,0.66413 0.28978,1.92907 1.22661,1.85657 z m -36.64819,-1.86555 0.122148,-0.16315 z m 2.267866,-6.656087 c -36.559936,-105.824888 -36.559936,-105.824888 0,0 z" id="path1" style="color:#000000;font-style:normal;font-variant:normal;font-weight:normal;font-stretch:normal;font-size:medium;line-height:normal;font-family:sans-serif;font-variant-ligatures:normal;font-variant-position:normal;font-variant-caps:normal;font-variant-numeric:normal;font-variant-alternates:normal;font-variant-east-asian:normal;font-feature-settings:normal;font-variation-settings:normal;text-indent:0;text-align:start;text-decoration-line:none;text-decoration-style:solid;text-decoration-color:#000000;letter-spacing:normal;word-spacing:normal;text-transform:none;writing-mode:lr-tb;direction:ltr;text-orientation:mixed;dominant-baseline:auto;baseline-shift:baseline;text-anchor:start;white-space:normal;shape-padding:0;shape-margin:0;inline-size:0;clip-rule:nonzero;display:inline;overflow:visible;visibility:visible;isolation:auto;mix-blend-mode:normal;color-interpolation:sRGB;color-interpolation-filters:linearRGB;solid-color:#000000;solid-opacity:1;vector-effect:none;fill:#908caa;fill-opacity:1;fill-rule:nonzero;stroke:none;stroke-linecap:butt;stroke-linejoin:miter;stroke-miterlimit:4;stroke-dasharray:none;stroke-dashoffset:0;stroke-opacity:1;filter:url(#filter15);color-rendering:auto;image-rendering:auto;shape-rendering:auto;text-rendering:auto;enable-background:accumulate;stop-color:#000000"></path>
    </g>
  </g>
  <path aria-label="//more  " d="m 403.18702,135.12277 -78.39841,112.54584 8.95251,2.55786 77.50316,-111.3948 z m 70.34105,0 -78.39841,112.54584 8.95251,2.55786 77.50316,-111.3948 z m 67.27162,89.14142 -1.27893,-5.24361 c -5.37151,2.04629 -6.77833,1.66261 -6.77833,-0.76736 0,-6.77833 9.20829,-34.53111 9.20829,-46.42516 0,-5.88308 -2.68575,-8.95251 -7.41779,-8.95251 -4.73204,0 -10.61512,3.45311 -16.75398,10.23144 0.38368,-6.65043 -2.17418,-10.23144 -7.03412,-10.23144 -4.22047,0 -9.46408,3.06943 -15.09137,9.33619 0.51157,-2.81364 1.02314,-6.52254 1.15104,-8.18515 l -9.08041,0.63946 c -3.06943,18.4166 -5.75518,32.48483 -11.63826,62.28389 h 9.59197 c 2.04629,-10.35933 6.52255,-33.38007 9.08041,-47.4483 4.60415,-4.73204 8.56883,-7.03411 11.38247,-7.03411 3.58101,0 3.83679,3.83679 2.55786,10.23144 l -8.69672,44.25097 h 7.80147 l 9.2083,-47.3204 c 4.60415,-4.85994 8.69672,-7.16201 11.51037,-7.16201 2.30207,0 3.19732,1.66261 3.19732,4.34836 0,9.20829 -8.69672,36.83318 -8.69672,45.40201 0,6.77833 5.37151,8.18516 17.77713,2.04629 z m 9.97555,-21.35813 c 0,16.4982 8.95251,25.45071 22.89285,25.45071 18.92816,0 33.76375,-17.77713 33.76375,-40.03051 0,-16.4982 -9.2083,-25.5786 -23.02074,-25.5786 -19.05606,0 -33.63586,18.1608 -33.63586,40.1584 z m 46.42516,-13.17298 c 0,16.24241 -8.95251,30.31064 -21.8697,30.31064 -9.2083,0 -14.45191,-6.77833 -14.45191,-18.54448 0,-16.11452 8.82461,-30.43854 21.8697,-30.43854 9.2083,0 14.45191,6.90623 14.45191,18.67238 z m 81.85142,33.50797 -0.89525,-5.37151 c -19.18395,6.26676 -23.02074,2.42997 -0.76736,-51.79666 l -4.73204,-2.68576 c -8.18515,3.7089 -17.64924,6.26676 -25.45071,7.16201 0.51157,-1.7905 0.76736,-3.45311 0.76736,-4.98782 0,-3.58101 -1.9184,-5.6273 -4.85993,-5.6273 -6.13887,0 -12.53352,7.03412 -12.53352,12.27773 0,3.06943 2.42997,4.98783 6.26676,5.88308 -3.7089,8.05726 -9.2083,15.73084 -17.00977,25.06703 l 3.96468,3.70889 c 8.31305,-8.82461 15.85873,-19.18395 20.2071,-28.13646 6.01097,-0.12789 13.17298,-1.40682 20.20709,-3.45311 -21.8697,50.90142 -12.7893,60.23761 14.83559,47.95988 z m 65.60902,-3.45311 -1.27893,-5.24362 c -29.03171,9.59198 -41.18154,5.37151 -41.18154,-11.12669 v -0.12789 c 29.41539,-2.17418 45.91358,-10.9988 45.91358,-25.5786 0,-9.2083 -6.77833,-14.96348 -17.77712,-14.96348 -21.61392,0 -37.85633,22.12549 -37.85633,41.9489 0,20.97445 18.1608,32.48482 52.18034,15.09138 z M 727.90686,171.0607 c 6.52254,0 10.61512,3.45312 10.61512,8.56884 0,10.48722 -14.06823,16.24241 -35.81004,17.77712 2.17418,-13.30087 11.63826,-26.34596 25.19492,-26.34596 z" id="text1" style="fill:#908caa;stroke-width:2;paint-order:markers stroke fill"></path>
  <path aria-label="evilMode  " d="m 377.22476,367.41607 1.66261,-14.96348 c -25.83439,-0.38368 -35.42636,-3.32522 -37.47265,-14.06823 l 39.00736,-1.02314 c 2.30208,-23.66021 -6.26675,-37.98422 -24.81124,-37.98422 -17.26555,0 -32.48482,15.34716 -32.48482,35.55425 0,21.10235 10.87091,33.63586 54.09874,32.48482 z m -24.93914,-53.33138 c 7.28991,0 10.23144,4.73204 10.61512,13.17298 -6.65043,0.12789 -15.98662,0.51157 -21.8697,0.63947 0.63947,-10.23144 4.34836,-13.81245 11.25458,-13.81245 z m 70.98052,33.76375 h -1.02315 c -4.85993,-15.60294 -9.46408,-31.97325 -13.68455,-47.32041 l -18.1608,1.27893 c 6.13886,21.23024 13.55666,43.22784 21.10234,64.58597 h 21.61392 c 7.54569,-21.35813 15.34716,-43.8673 21.48602,-65.22543 h -18.2887 c -3.96468,15.21927 -8.31304,31.20589 -13.04508,46.68094 z m 81.46774,-55.63345 1.15104,-18.54449 h -19.05606 l -1.15104,18.54449 z m 19.43973,73.66637 1.53472,-13.55666 h -20.84656 v -51.1572 h -38.24 l -1.40683,12.91719 21.35813,1.02315 v 37.21686 h -20.84656 v 13.55666 z m 66.12058,0 1.53472,-13.55666 h -19.05606 v -76.09634 h -35.42636 l -1.53471,13.04509 18.67238,1.02314 v 62.02811 h -18.92817 v 13.55666 z m 55.12179,-79.29366 -11.63827,41.43733 h -0.51157 L 621.49999,286.5877 H 604.8739 v 79.29366 h 16.62609 l -1.02315,-44.25098 h 0.51157 l 7.54569,26.60174 h 9.0804 l 7.54569,-26.60174 h 0.51157 l -1.02314,44.25098 h 17.26555 V 286.5877 Z m 55.76126,81.33994 c 17.77713,0 32.61271,-14.32401 32.61271,-36.19371 0,-21.23024 -11.12669,-32.61272 -27.3691,-32.61272 -17.90502,0 -32.61271,15.09137 -32.61271,36.19372 0,21.23024 11.12669,32.61271 27.3691,32.61271 z m 3.32522,-14.5798 c -7.80147,0 -12.14984,-6.90622 -12.14984,-21.35813 0,-12.53351 4.09258,-18.2887 10.87091,-18.2887 7.67358,0 12.14983,6.90622 12.14983,21.23024 0,12.66141 -4.09257,18.41659 -10.8709,18.41659 z m 70.46892,-0.51157 c -7.54568,0 -12.6614,-5.88308 -12.6614,-20.20709 0,-12.02195 4.47625,-17.77713 12.27773,-17.77713 2.30207,0 4.98782,0.51157 7.80147,1.40682 0.12789,13.55666 0.25578,25.19492 0.51157,34.01954 -2.30207,1.66261 -4.60415,2.55786 -7.92937,2.55786 z m 9.84777,13.42876 16.75398,-0.89525 c -0.76736,-13.81244 -1.02315,-33.25218 -1.02315,-64.84175 v -26.09017 l -18.1608,1.53472 V 299.377 c -21.35813,0 -38.11211,13.68455 -38.11211,37.72843 0,19.31184 9.59197,30.56643 23.02074,30.56643 7.03411,0 12.53351,-3.45311 16.62608,-7.67358 z m 84.79294,1.15104 1.66261,-14.96348 c -25.83439,-0.38368 -35.42636,-3.32522 -37.47265,-14.06823 l 39.00736,-1.02314 c 2.30208,-23.66021 -6.26675,-37.98422 -24.81124,-37.98422 -17.26555,0 -32.48482,15.34716 -32.48482,35.55425 0,21.10235 10.87091,33.63586 54.09874,32.48482 z m -24.93914,-53.33138 c 7.2899,0 10.23144,4.73204 10.61512,13.17298 -6.65043,0.12789 -15.98662,0.51157 -21.8697,0.63947 0.63947,-10.23144 4.34836,-13.81245 11.25458,-13.81245 z" id="text1-9" style="fill:#3e8fb0;stroke-width:2;paint-order:markers stroke fill"></path>
</svg>
