<?xml version="1.0" encoding="UTF-8" standalone="no"?>
<!-- Created with Inkscape (http://www.inkscape.org/) -->

<svg
   width="119.10616mm"
   height="101.87692mm"
   viewBox="0 0 119.10616 101.87692"
   version="1.1"
   id="svg1"
   xml:space="preserve"
   xmlns="http://www.w3.org/2000/svg"
   xmlns:svg="http://www.w3.org/2000/svg"><defs
     id="defs1" /><g
     id="layer1"
     transform="translate(-42.528955,-43.11378)"><path
       style="fill:#191724;fill-opacity:1;stroke:none"
       d="m 51.0852,68.541031 c -1.241515,0 -3.03638,-0.35576 -3.880555,0.79375 -0.837293,1.14014 -0.352778,3.67204 -0.352778,5.02708 v 13.22917 c 0,1.46251 -0.546447,4.33178 0.352778,5.55625 0.844171,1.14951 2.63904,0.79375 3.880555,0.79375 v 8.466659 c -1.241515,0 -3.036381,-0.35576 -3.880555,0.79375 -0.641648,0.87374 -0.352778,2.41769 -0.352778,3.43959 0,2.71898 -1.258356,9.71236 0.352778,11.90625 0.844171,1.14951 2.63904,0.79375 3.880555,0.79375 v 17.99166 c 0,1.67495 -0.667973,5.22463 0.352779,6.61459 1.12672,1.53425 7.349254,1.39192 8.025692,-0.52917 1.459355,-4.14456 0.0882,-11.19235 0.0882,-15.61042 h 16.933332 c 0,1.89407 -0.881196,6.88385 0.79375,8.11389 1.552861,1.14038 5.787538,0.35278 7.672916,0.35278 h 20.637501 c 1.99011,0 6.56838,0.84697 8.20208,-0.35278 1.67495,-1.23004 0.79375,-6.21982 0.79375,-8.11389 h 8.46667 c 0,1.89407 -0.8812,6.88385 0.79375,8.11389 1.05417,0.77416 3.25163,0.35278 4.49791,0.35278 h 11.1125 c 1.33464,0 3.50312,0.44077 4.40972,-0.79375 1.1412,-1.55398 0.35278,-5.78511 0.35278,-7.67292 4.77033,0 10.2535,0.90507 14.02292,-2.64583 3.6211,-3.41118 2.91042,-8.44986 2.91042,-12.96458 V 81.505611 c 0,-6.85172 2.4556,-19.01893 -3.70417,-23.7243 -2.89654,-2.21263 -6.3432,-1.94028 -9.78958,-1.94028 H 130.46019 59.551867 c 0,-3.7612 0.449597,-8.1569 -2.910417,-10.75972 -2.990182,-2.31633 -6.486554,-1.94028 -10.054166,-1.94028 -1.391087,0 -3.297782,-0.33217 -3.880556,1.32292 -0.246162,0.6991 -0.08819,1.65015 -0.08819,2.38125 0,1.13559 -0.356482,3.00295 0.352778,3.96875 1.717349,2.33851 6.009598,-0.71929 7.761111,1.85208 0.754759,1.10805 0.352777,3.21127 0.352777,4.49792 v 11.37708 m 26.987499,4.27743 c 3.959856,-0.82498 8.91005,-0.0441 12.964583,-0.0441 h 27.516664 c 6.43522,0 12.80569,-0.67917 18.52083,2.73403 14.09209,8.4161 9.49855,31.396119 -5.82083,35.013199 -4.29503,1.0141 -9.34889,0.35277 -13.75833,0.35277 H 90.772698 81.247699 c -1.135594,0 -3.002954,0.35648 -3.96875,-0.35277 -1.619705,-1.18948 -0.79375,-5.7671 -0.79375,-7.58473 V 80.976451 c 0,-2.01541 -1.021756,-7.61439 1.5875,-8.15799 m 44.449991,4.8066 c -18.27393,3.80707 -12.89651,32.187819 5.29167,28.398609 18.26293,-3.80478 12.88796,-32.186029 -5.29167,-28.398609 m 2.11667,7.36423 c 8.91746,-1.23856 9.79578,13.71424 0.52916,13.71424 -8.65314,0 -8.80597,-12.56467 -0.52916,-13.71424 m -39.687495,0.48507 v 4.23333 H 101.8852 v -4.23333 H 84.951865 m 0,8.46667 v 4.23333 H 101.8852 v -4.23333 H 84.951865 m 0,33.866659 v 4.23334 h -4.233333 v -4.23334 h 4.233333 m 8.466666,0 v 4.23334 h -4.233333 v -4.23334 h 4.233333 m 8.466669,0 v 4.23334 h -4.233335 v -4.23334 h 4.233335 m 8.46666,0 v 4.23334 h -4.23333 v -4.23334 h 4.23333 m 21.16666,0 v 4.23334 h -4.23333 v -4.23334 h 4.23333 m 8.46667,0 v 4.23334 h -4.23333 v -4.23334 z"
       id="path2" /></g></svg>
