<?xml version="1.0" encoding="UTF-8" standalone="yes"?>
<!-- Created with Inkscape (http://www.inkscape.org/) --><svg height="47.872288mm" id="svg1" version="1.1" viewBox="0 0 36.326763 47.872288" width="36.326763mm" xml:space="preserve" xmlns="http://www.w3.org/2000/svg" xmlns:svg="http://www.w3.org/2000/svg">
  <defs id="defs1"></defs>
  <g id="layer1" transform="translate(-70.348497,-73.393446)">
    <path d="m 73.606099,121.26573 c 3.19e-4,-2.90644 1.511154,-5.94303 1.290456,-8.73125 -0.176563,-2.23065 -1.776269,-3.95859 -1.661404,-6.35 0.09767,-2.03339 1.684591,-3.87754 1.630984,-5.82083 -0.09203,-3.336226 -2.732108,-5.375366 -1.119987,-8.995826 1.608672,-3.61272 4.588641,-3.29547 7.532663,-4.80885 2.46045,-1.2648 3.59568,-3.82952 6.614784,-4.32397 3.69202,-0.60467 5.07645,2.74125 7.717831,4.33336 2.83489,1.70875 5.916584,1.37205 7.714364,4.79946 1.84582,3.51897 -0.94914,5.46876 -1.03934,8.731246 -0.0475,1.71788 1.31676,3.28504 1.45745,5.02708 0.23367,2.89331 -1.41109,5.00166 -1.5236,7.67292 -0.11376,2.70107 1.28372,5.61418 1.28372,8.46666 5.16175,-1.49041 1.18792,-5.05964 1.77328,-8.46666 0.39237,-2.28376 1.48595,-4.20425 1.3911,-6.61459 -0.0759,-1.92944 -1.29723,-3.94052 -1.12652,-5.82083 0.26088,-2.873286 1.60503,-5.179366 0.96014,-8.202076 -0.5566,-2.6089 -3.20677,-4.47295 -3.6321,-6.87917 -0.55162,-3.12068 0.98177,-10.75904 -3.600255,-11.80173 -2.61796,-0.59574 -4.14913,1.9782 -4.784549,4.12881 -0.23195,0.78504 -0.2949,2.1812 -1.1155,2.61093 -0.84755,0.44384 -2.23764,-0.39903 -3.09477,-0.58184 -1.51114,-0.3223 -3.033,-0.17227 -4.497913,0.28479 -0.682167,0.21284 -1.58465,0.71217 -2.232014,0.16088 -1.497336,-1.27513 -1.122568,-4.29483 -2.844065,-5.81002 -1.414915,-1.24535 -3.395954,-1.04498 -4.544875,0.43934 -2.604354,3.36462 -1.151483,6.91646 -1.894547,10.56884 -0.461935,2.27055 -2.986528,3.94995 -3.630059,6.35 -0.909091,3.39046 0.652241,5.75511 0.784563,8.995826 0.163301,3.99944 -1.260673,6.96537 -0.01776,11.1125 1.080469,3.60513 -2.777135,8.04764 2.207923,9.525 M 98.229296,76.750004 c 0.861789,-0.22076 1.248609,0.74562 1.45317,1.38987 0.424434,1.33673 1.381494,5.77739 -0.427301,6.26447 -4.420519,1.19037 -3.212689,-7.09416 -1.025869,-7.65434 m -19.835994,0.26458 c 2.045081,-0.50828 3.192666,6.55357 1.5236,7.13579 -3.445176,1.20176 -3.042189,-1.79966 -2.848558,-4.15964 0.07626,-0.9295 0.193851,-2.69502 1.324959,-2.97615 m 8.706543,16.85739 c -1.112521,0.20058 -2.196873,0.60263 -3.174793,1.16817 -7.051025,4.07766 0.07908,11.534766 6.085213,10.452256 1.12347,-0.20248 2.18409,-0.55159 3.17398,-1.12816 7.033514,-4.09665 -0.0549,-11.579376 -6.0844,-10.492266 m 10.06969,0.34298 c -2.1644,0.81599 -0.536601,4.15617 1.543189,3.30524 2.076525,-0.84958 0.42423,-4.04699 -1.543189,-3.30524 m -18.267686,0.27131 c -2.49689,0.82522 -0.92124,3.93142 1.303318,3.03414 1.960953,-0.79096 0.548343,-3.6461 -1.303318,-3.03414 m 8.991745,1.19247 c 6.59107,-0.78023 8.513271,7.340466 1.32292,8.078366 -6.621968,0.67956 -8.477938,-7.231376 -1.32292,-8.078366 m -0.14964,2.57683 c -1.405494,0.94039 0.34063,2.950466 1.65283,2.099506 1.39842,-0.906856 -0.36618,-2.960376 -1.65283,-2.099506 z" id="path1" style="fill:#191724;stroke:none"></path>
  </g>
</svg>
